<mxfile host="app.diagrams.net" agent="Mozilla/5.0 (Windows NT 10.0; Win64; x64) AppleWebKit/537.36 (KHTML, like Gecko) Chrome/127.0.0.0 Safari/537.36" version="24.7.6">
  <diagram name="Page-1" id="nY1du3rWZWJ77gZ2tOH7">
    <mxGraphModel dx="2730" dy="687" grid="1" gridSize="10" guides="1" tooltips="1" connect="1" arrows="1" fold="1" page="1" pageScale="1" pageWidth="850" pageHeight="1100" math="0" shadow="0">
      <root>
        <mxCell id="0" />
        <mxCell id="1" parent="0" />
        <mxCell id="YM0SduUOtJsExmpixG41-8" value="" style="rounded=0;whiteSpace=wrap;html=1;" vertex="1" parent="1">
          <mxGeometry x="390" y="100" width="1190" height="670" as="geometry" />
        </mxCell>
        <mxCell id="YM0SduUOtJsExmpixG41-2" value="" style="rounded=0;whiteSpace=wrap;html=1;fillColor=none;" vertex="1" parent="1">
          <mxGeometry x="710" y="176.22" width="787.75" height="217.02" as="geometry" />
        </mxCell>
        <mxCell id="9CljTarxINEsyifC3CPM-62" value="" style="rounded=0;whiteSpace=wrap;html=1;rotation=90;strokeColor=#6666FF;fillColor=none;" parent="1" vertex="1">
          <mxGeometry x="776.3399999999999" y="-50" width="545" height="947.42" as="geometry" />
        </mxCell>
        <mxCell id="9CljTarxINEsyifC3CPM-34" value="" style="rounded=0;whiteSpace=wrap;html=1;strokeColor=#00CC00;" parent="1" vertex="1">
          <mxGeometry x="740" y="206.22" width="510" height="180" as="geometry" />
        </mxCell>
        <mxCell id="9CljTarxINEsyifC3CPM-54" value="Public subnet" style="points=[[0,0],[0.25,0],[0.5,0],[0.75,0],[1,0],[1,0.25],[1,0.5],[1,0.75],[1,1],[0.75,1],[0.5,1],[0.25,1],[0,1],[0,0.75],[0,0.5],[0,0.25]];outlineConnect=0;gradientColor=none;html=1;whiteSpace=wrap;fontSize=12;fontStyle=0;container=1;pointerEvents=0;collapsible=0;recursiveResize=0;shape=mxgraph.aws4.group;grIcon=mxgraph.aws4.group_security_group;grStroke=0;strokeColor=#7AA116;fillColor=#F2F6E8;verticalAlign=top;align=left;spacingLeft=30;fontColor=#248814;dashed=0;" parent="1" vertex="1">
          <mxGeometry x="750" y="223.71" width="480" height="132.51" as="geometry" />
        </mxCell>
        <mxCell id="9CljTarxINEsyifC3CPM-80" value="" style="sketch=0;outlineConnect=0;fontColor=#232F3E;gradientColor=none;fillColor=#8C4FFF;strokeColor=none;dashed=0;verticalLabelPosition=bottom;verticalAlign=top;align=center;html=1;fontSize=12;fontStyle=0;aspect=fixed;pointerEvents=1;shape=mxgraph.aws4.nat_gateway;" parent="9CljTarxINEsyifC3CPM-54" vertex="1">
          <mxGeometry x="420.00000000000006" y="51.009999999999984" width="24" height="24" as="geometry" />
        </mxCell>
        <mxCell id="afJ0QBq14s8mEoGrelWK-4" value="&lt;b&gt;Nat Gateway With Elastic IP&lt;/b&gt;" style="text;html=1;align=center;verticalAlign=middle;whiteSpace=wrap;rounded=0;" parent="9CljTarxINEsyifC3CPM-54" vertex="1">
          <mxGeometry x="389" y="76.01" width="86" height="30" as="geometry" />
        </mxCell>
        <mxCell id="9CljTarxINEsyifC3CPM-12" value="" style="outlineConnect=0;dashed=0;verticalLabelPosition=bottom;verticalAlign=top;align=center;html=1;shape=mxgraph.aws3.application_load_balancer;fillColor=#F58534;gradientColor=none;" parent="9CljTarxINEsyifC3CPM-54" vertex="1">
          <mxGeometry x="40" y="35.00999999999999" width="50" height="56" as="geometry" />
        </mxCell>
        <mxCell id="9CljTarxINEsyifC3CPM-69" value="" style="endArrow=classic;html=1;rounded=0;entryX=0.493;entryY=1.008;entryDx=0;entryDy=0;entryPerimeter=0;" parent="9CljTarxINEsyifC3CPM-54" edge="1">
          <mxGeometry width="50" height="50" relative="1" as="geometry">
            <mxPoint x="305" y="62.23999999999999" as="sourcePoint" />
            <mxPoint x="381.48383999999976" y="62.64524000000004" as="targetPoint" />
          </mxGeometry>
        </mxCell>
        <mxCell id="9CljTarxINEsyifC3CPM-22" value="" style="sketch=0;outlineConnect=0;fontColor=#232F3E;gradientColor=none;strokeColor=#ffffff;fillColor=#232F3E;dashed=0;verticalLabelPosition=middle;verticalAlign=bottom;align=center;html=1;whiteSpace=wrap;fontSize=10;fontStyle=1;spacing=3;shape=mxgraph.aws4.productIcon;prIcon=mxgraph.aws4.cognito;" parent="9CljTarxINEsyifC3CPM-54" vertex="1">
          <mxGeometry x="220" y="32.50999999999999" width="58.18" height="86" as="geometry" />
        </mxCell>
        <mxCell id="9CljTarxINEsyifC3CPM-30" value="&lt;b&gt;AMAZON COGNITO&lt;/b&gt;" style="text;html=1;align=center;verticalAlign=middle;whiteSpace=wrap;rounded=0;" parent="9CljTarxINEsyifC3CPM-54" vertex="1">
          <mxGeometry x="195.00000000000003" y="91.00999999999999" width="110" height="30" as="geometry" />
        </mxCell>
        <mxCell id="9CljTarxINEsyifC3CPM-17" value="" style="endArrow=classic;html=1;rounded=0;" parent="9CljTarxINEsyifC3CPM-54" edge="1">
          <mxGeometry width="50" height="50" relative="1" as="geometry">
            <mxPoint x="124.99999999999989" y="60.009042769857615" as="sourcePoint" />
            <mxPoint x="195" y="60.860000000000014" as="targetPoint" />
          </mxGeometry>
        </mxCell>
        <mxCell id="9CljTarxINEsyifC3CPM-13" value="&lt;b&gt;APPLICATION LOAD BALANCER&lt;/b&gt;" style="text;html=1;align=center;verticalAlign=middle;whiteSpace=wrap;rounded=0;" parent="9CljTarxINEsyifC3CPM-54" vertex="1">
          <mxGeometry x="10" y="102.50999999999999" width="110" height="30" as="geometry" />
        </mxCell>
        <mxCell id="9CljTarxINEsyifC3CPM-3" value="" style="shape=actor;whiteSpace=wrap;html=1;" parent="1" vertex="1">
          <mxGeometry x="420" y="387.71000000000004" width="40" height="60" as="geometry" />
        </mxCell>
        <mxCell id="9CljTarxINEsyifC3CPM-11" value="&lt;b&gt;USER&lt;/b&gt;" style="text;html=1;align=center;verticalAlign=middle;whiteSpace=wrap;rounded=0;" parent="1" vertex="1">
          <mxGeometry x="410" y="447.71000000000004" width="60" height="30" as="geometry" />
        </mxCell>
        <mxCell id="9CljTarxINEsyifC3CPM-41" value="&lt;b&gt;PRIVATE SUBNET 2&lt;/b&gt;" style="text;html=1;align=center;verticalAlign=middle;whiteSpace=wrap;rounded=0;" parent="1" vertex="1">
          <mxGeometry x="1292.75" y="648.71" width="130" height="30" as="geometry" />
        </mxCell>
        <mxCell id="9CljTarxINEsyifC3CPM-42" value="&lt;b&gt;PRIVATE SUBNET 1&lt;/b&gt;" style="text;html=1;align=center;verticalAlign=middle;whiteSpace=wrap;rounded=0;" parent="1" vertex="1">
          <mxGeometry x="1290" y="357.71000000000004" width="130" height="30" as="geometry" />
        </mxCell>
        <mxCell id="9CljTarxINEsyifC3CPM-49" value="&lt;b&gt;ROUTE TABLE&lt;/b&gt;" style="text;html=1;align=center;verticalAlign=middle;whiteSpace=wrap;rounded=0;" parent="1" vertex="1">
          <mxGeometry x="890.5" y="465.71000000000004" width="110" height="30" as="geometry" />
        </mxCell>
        <mxCell id="9CljTarxINEsyifC3CPM-36" value="" style="rounded=0;whiteSpace=wrap;html=1;strokeColor=#FF6666;fillColor=#FBFBFB;" parent="1" vertex="1">
          <mxGeometry x="1290" y="518.71" width="130" height="130" as="geometry" />
        </mxCell>
        <mxCell id="9CljTarxINEsyifC3CPM-57" value="Private subnet" style="points=[[0,0],[0.25,0],[0.5,0],[0.75,0],[1,0],[1,0.25],[1,0.5],[1,0.75],[1,1],[0.75,1],[0.5,1],[0.25,1],[0,1],[0,0.75],[0,0.5],[0,0.25]];outlineConnect=0;gradientColor=none;html=1;whiteSpace=wrap;fontSize=12;fontStyle=0;container=1;pointerEvents=0;collapsible=0;recursiveResize=0;shape=mxgraph.aws4.group;grIcon=mxgraph.aws4.group_security_group;grStroke=0;strokeColor=#00A4A6;fillColor=#E6F6F7;verticalAlign=top;align=left;spacingLeft=30;fontColor=#147EBA;dashed=0;" parent="1" vertex="1">
          <mxGeometry x="1290" y="518.71" width="130" height="130" as="geometry" />
        </mxCell>
        <mxCell id="afJ0QBq14s8mEoGrelWK-7" value="" style="sketch=0;outlineConnect=0;fontColor=#232F3E;gradientColor=none;fillColor=#ED7100;strokeColor=none;dashed=0;verticalLabelPosition=bottom;verticalAlign=top;align=center;html=1;fontSize=12;fontStyle=0;aspect=fixed;pointerEvents=1;shape=mxgraph.aws4.auto_scaling2;" parent="9CljTarxINEsyifC3CPM-57" vertex="1">
          <mxGeometry x="82" y="41.00999999999999" width="48" height="48" as="geometry" />
        </mxCell>
        <mxCell id="9CljTarxINEsyifC3CPM-39" value="&lt;b&gt;INSTANCE&lt;/b&gt;" style="sketch=0;outlineConnect=0;fontColor=#232F3E;gradientColor=none;strokeColor=#232F3E;fillColor=#FBFBFB;dashed=0;verticalLabelPosition=bottom;verticalAlign=top;align=center;html=1;fontSize=12;fontStyle=0;aspect=fixed;shape=mxgraph.aws4.resourceIcon;resIcon=mxgraph.aws4.instances;" parent="9CljTarxINEsyifC3CPM-57" vertex="1">
          <mxGeometry x="30" y="41.00999999999999" width="45" height="45" as="geometry" />
        </mxCell>
        <mxCell id="9CljTarxINEsyifC3CPM-59" value="" style="rounded=0;whiteSpace=wrap;html=1;strokeColor=#FF6666;fillColor=#FBFBFB;" parent="1" vertex="1">
          <mxGeometry x="1290" y="223.71" width="140" height="132.51" as="geometry" />
        </mxCell>
        <mxCell id="9CljTarxINEsyifC3CPM-60" value="Private subnet" style="points=[[0,0],[0.25,0],[0.5,0],[0.75,0],[1,0],[1,0.25],[1,0.5],[1,0.75],[1,1],[0.75,1],[0.5,1],[0.25,1],[0,1],[0,0.75],[0,0.5],[0,0.25]];outlineConnect=0;gradientColor=none;html=1;whiteSpace=wrap;fontSize=12;fontStyle=0;container=1;pointerEvents=0;collapsible=0;recursiveResize=0;shape=mxgraph.aws4.group;grIcon=mxgraph.aws4.group_security_group;grStroke=0;strokeColor=#00A4A6;fillColor=#E6F6F7;verticalAlign=top;align=left;spacingLeft=30;fontColor=#147EBA;dashed=0;" parent="1" vertex="1">
          <mxGeometry x="1290" y="223.71" width="140" height="132.51" as="geometry" />
        </mxCell>
        <mxCell id="afJ0QBq14s8mEoGrelWK-5" value="" style="sketch=0;outlineConnect=0;fontColor=#232F3E;gradientColor=none;fillColor=#ED7100;strokeColor=none;dashed=0;verticalLabelPosition=bottom;verticalAlign=top;align=center;html=1;fontSize=12;fontStyle=0;aspect=fixed;pointerEvents=1;shape=mxgraph.aws4.auto_scaling2;" parent="9CljTarxINEsyifC3CPM-60" vertex="1">
          <mxGeometry x="87.5" y="40" width="48" height="48" as="geometry" />
        </mxCell>
        <mxCell id="9CljTarxINEsyifC3CPM-61" value="&lt;b&gt;INSTANCE&lt;/b&gt;" style="sketch=0;outlineConnect=0;fontColor=#232F3E;gradientColor=none;strokeColor=#232F3E;fillColor=#FBFBFB;dashed=0;verticalLabelPosition=bottom;verticalAlign=top;align=center;html=1;fontSize=12;fontStyle=0;aspect=fixed;shape=mxgraph.aws4.resourceIcon;resIcon=mxgraph.aws4.instances;" parent="9CljTarxINEsyifC3CPM-60" vertex="1">
          <mxGeometry x="30" y="41.5" width="45" height="45" as="geometry" />
        </mxCell>
        <mxCell id="9CljTarxINEsyifC3CPM-68" value="&lt;b&gt;AVAILABILITY ZONE US-WEST-2B&lt;/b&gt;" style="text;html=1;align=center;verticalAlign=middle;whiteSpace=wrap;rounded=0;" parent="1" vertex="1">
          <mxGeometry x="1215" y="495.71000000000004" width="280" height="30" as="geometry" />
        </mxCell>
        <mxCell id="9CljTarxINEsyifC3CPM-82" value="" style="rounded=0;whiteSpace=wrap;html=1;fillColor=none;" parent="1" vertex="1">
          <mxGeometry x="1217.75" y="495.71000000000004" width="280" height="191" as="geometry" />
        </mxCell>
        <mxCell id="afJ0QBq14s8mEoGrelWK-2" value="" style="endArrow=classic;html=1;rounded=0;exitX=1.047;exitY=0.641;exitDx=0;exitDy=0;exitPerimeter=0;" parent="1" edge="1">
          <mxGeometry width="50" height="50" relative="1" as="geometry">
            <mxPoint x="-349.9999999999999" y="389.70000000000005" as="sourcePoint" />
            <mxPoint x="-181.88" y="386.21850099933386" as="targetPoint" />
          </mxGeometry>
        </mxCell>
        <mxCell id="9CljTarxINEsyifC3CPM-87" value="" style="sketch=0;outlineConnect=0;fontColor=#232F3E;gradientColor=none;fillColor=#8C4FFF;strokeColor=none;dashed=0;verticalLabelPosition=bottom;verticalAlign=top;align=center;html=1;fontSize=12;fontStyle=0;aspect=fixed;pointerEvents=1;shape=mxgraph.aws4.internet_gateway;" parent="1" vertex="1">
          <mxGeometry x="537" y="386.22" width="70" height="70" as="geometry" />
        </mxCell>
        <mxCell id="afJ0QBq14s8mEoGrelWK-3" value="" style="html=1;verticalLabelPosition=bottom;align=center;labelBackgroundColor=#ffffff;verticalAlign=top;strokeWidth=2;strokeColor=#0080F0;shadow=0;dashed=0;shape=mxgraph.ios7.icons.locked;" parent="1" vertex="1">
          <mxGeometry x="560" y="156.22" width="24" height="30" as="geometry" />
        </mxCell>
        <mxCell id="afJ0QBq14s8mEoGrelWK-8" value="" style="outlineConnect=0;dashed=0;verticalLabelPosition=bottom;verticalAlign=top;align=center;html=1;shape=mxgraph.aws3.route_table;fillColor=#F58536;gradientColor=none;" parent="1" vertex="1">
          <mxGeometry x="1260" y="416.22" width="45" height="48.49" as="geometry" />
        </mxCell>
        <mxCell id="afJ0QBq14s8mEoGrelWK-9" value="" style="outlineConnect=0;dashed=0;verticalLabelPosition=bottom;verticalAlign=top;align=center;html=1;shape=mxgraph.aws3.route_table;fillColor=#F58536;gradientColor=none;" parent="1" vertex="1">
          <mxGeometry x="923" y="417.22" width="45" height="48.49" as="geometry" />
        </mxCell>
        <mxCell id="afJ0QBq14s8mEoGrelWK-10" value="&lt;b&gt;ROUTE TABLE&lt;/b&gt;" style="text;html=1;align=center;verticalAlign=middle;whiteSpace=wrap;rounded=0;" parent="1" vertex="1">
          <mxGeometry x="1237.5" y="464.71000000000004" width="110" height="30" as="geometry" />
        </mxCell>
        <mxCell id="afJ0QBq14s8mEoGrelWK-14" value="" style="endArrow=classic;html=1;rounded=0;exitX=0.409;exitY=0.995;exitDx=0;exitDy=0;exitPerimeter=0;" parent="1" edge="1">
          <mxGeometry width="50" height="50" relative="1" as="geometry">
            <mxPoint x="1032.18975" y="392.15490000000005" as="sourcePoint" />
            <mxPoint x="970" y="446.22" as="targetPoint" />
            <Array as="points">
              <mxPoint x="1032" y="446" />
            </Array>
          </mxGeometry>
        </mxCell>
        <mxCell id="afJ0QBq14s8mEoGrelWK-16" value="" style="endArrow=classic;html=1;rounded=0;exitX=0.842;exitY=0.99;exitDx=0;exitDy=0;exitPerimeter=0;" parent="1" edge="1">
          <mxGeometry width="50" height="50" relative="1" as="geometry">
            <mxPoint x="1373.2855000000002" y="391.06980000000004" as="sourcePoint" />
            <mxPoint x="1320" y="446.22" as="targetPoint" />
            <Array as="points">
              <mxPoint x="1372" y="446.22" />
            </Array>
          </mxGeometry>
        </mxCell>
        <mxCell id="afJ0QBq14s8mEoGrelWK-19" value="" style="endArrow=none;html=1;rounded=0;exitX=0.401;exitY=-0.004;exitDx=0;exitDy=0;exitPerimeter=0;" parent="1" edge="1">
          <mxGeometry width="50" height="50" relative="1" as="geometry">
            <mxPoint x="1372" y="496.22" as="sourcePoint" />
            <mxPoint x="1372" y="437.22" as="targetPoint" />
          </mxGeometry>
        </mxCell>
        <mxCell id="afJ0QBq14s8mEoGrelWK-20" value="" style="endArrow=classic;html=1;rounded=0;" parent="1" edge="1">
          <mxGeometry width="50" height="50" relative="1" as="geometry">
            <mxPoint x="1280" y="416.22" as="sourcePoint" />
            <mxPoint x="1251.922417582418" y="286.22" as="targetPoint" />
            <Array as="points">
              <mxPoint x="1280" y="286.22" />
            </Array>
          </mxGeometry>
        </mxCell>
        <mxCell id="afJ0QBq14s8mEoGrelWK-22" style="edgeStyle=none;rounded=0;orthogonalLoop=1;jettySize=auto;html=1;exitX=0.5;exitY=0;exitDx=0;exitDy=0;" parent="1" source="9CljTarxINEsyifC3CPM-62" target="9CljTarxINEsyifC3CPM-62" edge="1">
          <mxGeometry relative="1" as="geometry" />
        </mxCell>
        <mxCell id="afJ0QBq14s8mEoGrelWK-24" value="\" style="text;html=1;align=center;verticalAlign=middle;resizable=0;points=[];autosize=1;strokeColor=none;fillColor=none;" parent="1" vertex="1">
          <mxGeometry x="1080" y="166.22" width="30" height="30" as="geometry" />
        </mxCell>
        <mxCell id="afJ0QBq14s8mEoGrelWK-25" value="&lt;b&gt;PUBLIC SUBNET 1&lt;/b&gt;" style="text;html=1;align=center;verticalAlign=middle;whiteSpace=wrap;rounded=0;" parent="1" vertex="1">
          <mxGeometry x="930" y="357.71000000000004" width="130" height="30" as="geometry" />
        </mxCell>
        <mxCell id="9CljTarxINEsyifC3CPM-65" value="&lt;b&gt;AVAILABILITY ZONE US-WEST-2A&lt;/b&gt;" style="text;html=1;align=center;verticalAlign=middle;whiteSpace=wrap;rounded=0;" parent="1" vertex="1">
          <mxGeometry x="1060" y="176.22" width="280" height="30" as="geometry" />
        </mxCell>
        <mxCell id="YM0SduUOtJsExmpixG41-3" value="&lt;b&gt;Internet Gateway&lt;/b&gt;" style="text;html=1;align=center;verticalAlign=middle;whiteSpace=wrap;rounded=0;" vertex="1" parent="1">
          <mxGeometry x="520" y="465.71000000000004" width="131.88" height="30" as="geometry" />
        </mxCell>
        <mxCell id="YM0SduUOtJsExmpixG41-6" value="&lt;b&gt;&lt;font style=&quot;font-size: 18px;&quot;&gt;Virtual Private Cloud&lt;/font&gt;&lt;/b&gt;" style="text;html=1;align=center;verticalAlign=middle;whiteSpace=wrap;rounded=0;" vertex="1" parent="1">
          <mxGeometry x="890.5" y="710" width="259.5" height="30" as="geometry" />
        </mxCell>
        <mxCell id="YM0SduUOtJsExmpixG41-10" value="Actor" style="shape=umlActor;verticalLabelPosition=bottom;verticalAlign=top;html=1;outlineConnect=0;" vertex="1" parent="1">
          <mxGeometry x="1090" y="520" width="30" height="60" as="geometry" />
        </mxCell>
      </root>
    </mxGraphModel>
  </diagram>
</mxfile>
